<?xml version="1.0" encoding="iso-8859-1"?>

<svg version="1.1" id="Capa_1" xmlns="http://www.w3.org/2000/svg" xmlns:xlink="http://www.w3.org/1999/xlink" x="0px" y="0px"
	 width="579.355px" height="579.355px" viewBox="0 0 579.355 579.355" style="enable-background:new 0 0 579.355 579.355;"
	 xml:space="preserve">

		<path d="M144.839,144.839v108.63c0,19.997,16.193,36.209,36.209,36.209h217.26c20.016,0,36.209-16.212,36.209-36.209v-108.63
			C434.517,64.854,369.666,0,289.678,0C209.689-0.003,144.839,64.851,144.839,144.839z M398.308,144.839
			c0,59.991-48.657,108.63-108.63,108.63c-59.973,0-108.63-48.639-108.63-108.63C181.048,144.839,289.678,145.968,398.308,144.839z"
			/>
		<path d="M506.938,398.308c0-39.994-32.427-72.421-72.421-72.421h-33.115c-5.07,0-12.573,2.316-16.763,5.178l-36.995,25.257
			c-4.187,2.858-8.746,9.119-10.181,13.981l-43.149,146.191c-1.435,4.862-3.834,4.884-5.361,0.049l-45.343-143.71
			c-1.527-4.835-6.172-11.05-10.379-13.88l-41.524-27.941c-4.208-2.83-11.726-5.125-16.796-5.125h-30.077
			c-39.988,0-72.415,32.427-72.415,72.421v144.839c0,20.016,16.196,36.209,36.209,36.209h36.209h289.681h36.209
			c20.016,0,36.209-16.196,36.209-36.209V398.308H506.938z M234.53,547.736c-8.449,0-15.3-6.851-15.3-15.3
			c0-8.448,6.851-15.3,15.3-15.3s15.3,6.852,15.3,15.3C249.831,540.889,242.979,547.736,234.53,547.736z M234.53,492.656
			c-8.449,0-15.3-6.851-15.3-15.3c0-8.448,6.851-15.3,15.3-15.3s15.3,6.852,15.3,15.3
			C249.831,485.809,242.979,492.656,234.53,492.656z"/>
</svg>
